<svg xmlns="http://www.w3.org/2000/svg" viewBox="0 0 80 32" role="img" aria-label="Visa">
  <title>Visa</title>
  <path fill="#FFFFFF" d="M29.97 28.45L35.65 3.78h6.52l-5.68 24.67H29.97zm35.78-23.65c-1.75-1.02-4.87-2.18-8.63-2.18-9.57 0-16.34 5.79-16.41 13.13-.05 5.97 5.39 9.3 9.05 11.27 3.79 2.07 5.07 3.39 5.05 5.23-.03 2.82-3.01 4.12-5.78 4.12-4.84 0-7.43-.64-10.61-2.24l-1.45-.72-2.14 10.25c2.35 1.07 5.89 2.1 10.22 2.15 10.17 0 16.82-5.69 16.89-14.5.04-4.8-2.53-8.5-8.07-11.52-3.37-1.96-4.87-3.27-4.85-5.25.02-1.76 1.74-3.64 5.52-3.64 3.16-.06 5.45.77 7.23 1.65l.97.49 1.46-9.08z"/>
</svg>
