<svg xmlns="http://www.w3.org/2000/svg" viewBox="0 0 1000 324" role="img" aria-label="Visa">
  <title>Visa</title>
  <path fill="#1A1F71" d="M433.35 320.62l54.28-316.31h86.83l-54.31 316.31h-86.8zM834.87 11.38c-17.2-6.62-44.18-13.83-77.83-13.83-85.84 0-146.32 43.18-146.83 105.05-.48 45.7 42.94 71.21 75.69 86.42 33.61 15.6 44.93 25.55 44.78 39.49-.21 21.32-26.75 31.06-51.45 31.06-34.4 0-52.7-4.83-80.94-16.8l-11.07-5.04-12.07 70.61c20.13 8.9 57.39 16.6 96.09 17 91.31 0 150.6-42.69 151.27-108.74.34-36.21-22.65-63.76-72.34-86.42-30.12-14.69-48.59-24.49-48.39-39.36 0-13.2 15.65-27.31 49.52-27.31 28.27-.43 48.74 5.78 64.69 12.39l7.74 3.71 11.7-68.23zM1057.63 4.31h-67.13c-20.78 0-36.34 5.74-45.47 26.66l-129 289.65h91.21s14.91-39.59 18.28-48.27c9.97 0 98.59.13 111.25.13 2.6 11.23 10.55 48.14 10.55 48.14h80.59l-70.28-316.31zM950.4 207.79c7.18-18.62 34.62-90.11 34.62-90.11-.51 1.12 7.13-18.79 11.51-30.94l5.86 27.95s16.63 76.64 20.11 92.95l-72.1.15zM360.62 4.31L275.59 218.06l-9.06-44.59c-15.83-51.42-65.54-107.13-121.13-134.95l77.74 282.04 91.91-.11 136.73-316.14h-91.16zm-208.81 0H6.71l-1.16 6.86c108.9 26.55 180.93 90.61 210.83 167.65l-30.43-152.47c-5.25-20.34-20.5-26.42-39.4-27.04z"/>
</svg>
